# xmcd
#
# Track frame offsets: 
#        150
#        14802
#        31060
#        48645
#        66525
#        81209
#        94997
#        110640
#        127261
#        145646
#        159487
#        172697
#        189286
#        203833
#        221378
#        240261
#        255792
#        267790
#        295062
#        311561
#        324906
#
# Disc length: 4515 seconds
#
# Revision: 0
# Processed by: cddbd v1.5.2PL0 Copyright (c) Steve Scherf et al.
# Submitted via: ExactAudioCopy v0.99pb3
#
DISCID=2211a115
DTITLE=Ze Henrique e Gabriel - Expo Araguaina TO
DYEAR=2009
DGENRE=Country
TTITLE0=Tem Tudo a Ver
TTITLE1=Patricinha
TTITLE2=Amor de Primavera
TTITLE3=Dona de Meu Destino
TTITLE4=Morro de Saudade
TTITLE5=Outra Vez Bebo Por Ela
TTITLE6=Nao Posso Amar Por Nos Dois
TTITLE7=To Por Ai
TTITLE8=Um Louco
TTITLE9=O Que Eu Sou Sem Voce
TTITLE10=Barco de Papel
TTITLE11=Voce eh a Dona do Meu Coracao
TTITLE12=De Volta Pro Amor
TTITLE13=Declaracao
TTITLE14=Sonhei Com Voce
TTITLE15=Vou Dormir na Rua
TTITLE16=Quando Olhei Pra Voce
TTITLE17=O Que Tem a Rosa - Cai Sereno - Tchau Amor - Brincando Com a Vio
TTITLE17=la
TTITLE18=Raio de Sol
TTITLE19=Aperta o Pe
TTITLE20=Caiu do Ceu
EXTD=
EXTT0=
EXTT1=
EXTT2=
EXTT3=
EXTT4=
EXTT5=
EXTT6=
EXTT7=
EXTT8=
EXTT9=
EXTT10=
EXTT11=
EXTT12=
EXTT13=
EXTT14=
EXTT15=
EXTT16=
EXTT17=
EXTT18=
EXTT19=
EXTT20=
PLAYORDER=
